# xmcd
#
# Track frame offsets:
#	150
#	23637
#	38010
#	61967
#	71117
#	83690
#	109967
#	122367
#	142217
#	164105
#	179620
#	193532
#	205227
#	224117
#	239220
#
# Disc length: 3382 seconds
#
# Revision: 3
# Processed by: cddbd v1.5.2PL0 Copyright (c) Steve Scherf et al.
# Submitted via: EZCDAudioConverter 1.3.1.1
#
DISCID=ed0d340f
DTITLE=Eric Clapton, Jeff Beck and Jimmy Page - Blue Eyed Blues
DYEAR=1992
DGENRE=Blues
TTITLE0=23 Hours Too Long
TTITLE1=Out On The Water
TTITLE2=Five Long Years
TTITLE3=I Ain't Got You
TTITLE4=Good Morning Little Schoolgirl
TTITLE5=Little Red Rooster
TTITLE6=Highway
TTITLE7=Wang Dang Doodle
TTITLE8=I'm A Man
TTITLE9=The Train Kept A Rolling
TTITLE10=Jeff's Blues
TTITLE11=Steeled Blues
TTITLE12=New York City Blues
TTITLE13=It's A Bloody Life
TTITLE14=I See A Man Downstaird
EXTD=
EXTT0=
EXTT1=
EXTT2=
EXTT3=
EXTT4=
EXTT5=
EXTT6=
EXTT7=
EXTT8=
EXTT9=
EXTT10=
EXTT11=
EXTT12=
EXTT13=
EXTT14=
PLAYORDER=
